<?xml version="1.0" encoding="UTF-8"?>
<svg width="24" height="24" viewBox="0 0 24 24" xmlns="http://www.w3.org/2000/svg">
  <!-- Haft-seen table cloth -->
  <rect x="4" y="13" width="16" height="7" rx="1" fill="#D61043" fill-opacity="0.2" />
  
  <!-- Table surface -->
  <rect x="3" y="12" width="18" height="1" fill="#8B4513" fill-opacity="0.5" />
  
  <!-- Sabzeh (wheat sprouts) -->
  <path d="M6,12 C6,10 6.5,8 7,7 C7.5,8 8,10 8,12" stroke="#277C52" stroke-width="1" fill="#277C52" fill-opacity="0.3" />
  <path d="M7,7 C7.5,6 7.7,5 7.5,4 C7.2,5 7.0,6 7,7" stroke="#277C52" stroke-width="0.5" fill="#277C52" fill-opacity="0.5" />
  
  <!-- Samanu (sweet pudding) -->
  <rect x="9" y="9" width="2" height="3" rx="0.5" fill="#8B4513" fill-opacity="0.5" />
  
  <!-- Senjed (dried fruit) -->
  <circle cx="12" cy="10" r="1" fill="#C19A6B" />
  
  <!-- Seer (garlic) -->
  <circle cx="14" cy="10" r="1" fill="#F5F5DC" />
  
  <!-- Seeb (apple) -->
  <circle cx="16" cy="9" r="1.5" fill="#D61043" fill-opacity="0.3" />
  <path d="M16,7.5 C16.5,7 17,7 17,8" stroke="#277C52" stroke-width="0.5" fill="none" />
  
  <!-- Somagh (sumac) and Serkeh (vinegar) -->
  <rect x="18" y="9" width="1" height="3" rx="0.5" fill="#D61043" fill-opacity="0.4" />
  
  <!-- Goldfish bowl -->
  <path d="M5,9 C4,10 4,11 5,12 C6,11 6,10 5,9 Z" fill="#87CEEB" fill-opacity="0.5" />
  <path d="M5,10.5 L5.5,10.8 L5.3,10.5 L5.5,10.2 Z" fill="#FFA500" />
</svg> 