<?xml version="1.0" encoding="UTF-8"?>
<svg width="16" height="16" viewBox="0 0 16 16" xmlns="http://www.w3.org/2000/svg">
  <!-- Pistachio shell -->
  <path d="M3,8 C3,4.5 5.5,2 8,2 C10.5,2 13,4.5 13,8 C13,11.5 10.5,14 8,14 C5.5,14 3,11.5 3,8 Z" 
    fill="#C19A6B" />
  
  <!-- Shell crack -->
  <path d="M8,2 C7.5,2.5 7.2,3.5 7,4.5 C6.8,5.5 6.5,6.5 6.5,8 C6.5,9.5 6.8,10.5 7,11.5 C7.2,12.5 7.5,13.5 8,14" 
    stroke="#8B4513" stroke-width="0.5" fill="none" />
  
  <!-- Pistachio nut -->
  <path d="M8,3.5 C9.5,3.5 11,5 11,8 C11,11 9.5,12.5 8,12.5" 
    fill="#9ACD32" />
</svg> 