<?xml version="1.0" encoding="UTF-8"?>
<svg width="20" height="20" viewBox="0 0 20 20" xmlns="http://www.w3.org/2000/svg">
  <!-- Saucer -->
  <ellipse cx="10" cy="17" rx="7" ry="2" fill="#D61043" fill-opacity="0.2" />
  
  <!-- Cup body -->
  <path d="M5,8 C5,6 7,5 10,5 C13,5 15,6 15,8 L15,14 C15,15.5 13,17 10,17 C7,17 5,15.5 5,14 Z" fill="#277C52" fill-opacity="0.3" />
  
  <!-- Cup handle -->
  <path d="M15,9 C16.5,9 18,10 18,12 C18,14 16.5,15 15,15" stroke="#277C52" stroke-width="1" fill="none" />
  
  <!-- Tea liquid -->
  <path d="M5.5,8.5 C5.5,7 7.5,6 10,6 C12.5,6 14.5,7 14.5,8.5 L14.5,9.5 C14.5,11 12.5,12 10,12 C7.5,12 5.5,11 5.5,9.5 Z" fill="#D61043" fill-opacity="0.2" />
  
  <!-- Steam -->
  <path d="M8,5 C8,3 9,2 10,3 C11,4 10,5 10,3 C10,2 11,1 12,2 C13,3 12,5 12,4" stroke="#277C52" stroke-opacity="0.3" stroke-width="0.5" fill="none" />
</svg> 