<?xml version="1.0" encoding="UTF-8"?>
<svg width="120" height="12" viewBox="0 0 120 12" xmlns="http://www.w3.org/2000/svg">
  <defs>
    <pattern id="carpetPattern" x="0" y="0" width="40" height="12" patternUnits="userSpaceOnUse">
      <rect x="0" y="0" width="40" height="12" fill="#f8f8f8" />
      <path d="M0,0 L10,0 L10,4 L20,4 L20,0 L30,0 L30,4 L40,4 L40,12 L30,12 L30,8 L20,8 L20,12 L10,12 L10,8 L0,8 Z" fill="#D61043" fill-opacity="0.15" />
      <path d="M0,4 L10,4 L10,8 L0,8 Z M20,4 L30,4 L30,8 L20,8 Z" fill="#277C52" fill-opacity="0.2" />
      <path d="M8,6 L2,6 L2,4 L0,4 L0,8 L2,8 L2,6 Z M38,6 L32,6 L32,4 L30,4 L30,8 L32,8 L32,6 Z" fill="#D61043" fill-opacity="0.2" />
      <path d="M18,6 L12,6 L12,4 L10,4 L10,8 L12,8 L12,6 Z M28,6 L22,6 L22,4 L20,4 L20,8 L22,8 L22,6 Z" fill="#277C52" fill-opacity="0.15" />
    </pattern>
  </defs>
  <rect x="0" y="0" width="120" height="12" fill="url(#carpetPattern)" />
</svg> 