<?xml version="1.0" encoding="UTF-8"?>
<svg width="800" height="100" viewBox="0 0 800 100" xmlns="http://www.w3.org/2000/svg">
  <!-- Tehran skyline silhouette -->
  <path d="M0,100 L0,70 L20,70 L20,65 L30,65 L40,55 L50,55 L50,45 L60,45 L70,55 L80,55 L90,60 
    L100,60 L100,55 L110,55 L120,45 L130,45 L130,55 L140,55 L150,65 L160,65 L170,55 L180,55 
    L180,60 L190,60 L190,50 L195,50 L195,40 L200,40 L200,30 L205,30 L210,40 L215,40 L215,50 
    L220,50 L220,60 L230,60 L230,50 L240,50 L240,40 L250,40 L260,50 L270,50 L270,60 L280,60 
    L290,50 L300,50 L300,40 L305,40 L305,30 L310,30 L315,40 L320,40 L330,50 L340,50 L350,55 
    L360,55 L360,60 L370,60 L380,55 L390,55 L400,60 L410,60 L420,50 L430,50 L440,60 L450,60 
    L460,55 L470,55 L480,45 L485,45 L485,35 L490,35 L490,30 L500,30 L510,40 L520,40 L530,45 
    L540,45 L550,55 L560,55 L570,60 L580,60 L590,55 L600,55 L610,60 L620,60 L630,55 L640,55 
    L650,50 L660,50 L670,55 L680,55 L690,60 L700,60 L710,55 L720,55 L730,50 L740,50 L750,60 
    L760,60 L770,65 L780,65 L790,70 L800,70 L800,100 Z" 
    fill="#277C52" fill-opacity="0.3" />
  
  <!-- Milad Tower -->
  <path d="M400,30 L395,40 L390,45 L400,60 L410,45 L405,40 Z" fill="#277C52" fill-opacity="0.3" />
  <path d="M398,15 L398,40 L402,40 L402,15 Z" fill="#277C52" fill-opacity="0.3" />
</svg> 